HIERARCHY
ROOT root
{
	OFFSET 0.000000 0.000000 0.000000
	CHANNELS 6 Xposition Yposition Zposition Zrotation Yrotation Xrotation
	JOINT lhip
	{
		OFFSET 0.058581 -0.082280 -0.017664
		CHANNELS 3 Zrotation Yrotation Xrotation
		JOINT lknee
		{
			OFFSET 0.043451 -0.386469 0.008037
			CHANNELS 3 Zrotation Yrotation Xrotation
			JOINT lankle
			{
				OFFSET -0.014790 -0.426874 -0.037428
				CHANNELS 3 Zrotation Yrotation Xrotation
				JOINT ltoe
				{
					OFFSET 0.041054 -0.060286 0.122042
					CHANNELS 3 Zrotation Yrotation Xrotation
					End Site
					{
						OFFSET 0.000000 0.000000 0.000000
					}
				}
			}
		}
	}
	JOINT rhip
	{
		OFFSET -0.060310 -0.090513 -0.013543
		CHANNELS 3 Zrotation Yrotation Xrotation
		JOINT rknee
		{
			OFFSET -0.043257 -0.383688 -0.004843
			CHANNELS 3 Zrotation Yrotation Xrotation
			JOINT rankle
			{
				OFFSET 0.019056 -0.420046 -0.034562
				CHANNELS 3 Zrotation Yrotation Xrotation
				JOINT rtoe
				{
					OFFSET -0.034840 -0.062106 0.130323
					CHANNELS 3 Zrotation Yrotation Xrotation
					End Site
					{
						OFFSET 0.000000 0.000000 0.000000
					}
				}
			}
		}
	}
	JOINT lowerback
	{
		OFFSET 0.004439 0.124404 -0.038385
		CHANNELS 3 Zrotation Yrotation Xrotation
		JOINT upperback
		{
			OFFSET 0.004488 0.137956 0.026820
			CHANNELS 3 Zrotation Yrotation Xrotation
			JOINT chest
			{
				OFFSET -0.002265 0.056032 0.002855
				CHANNELS 3 Zrotation Yrotation Xrotation
				JOINT lowerneck
				{
					OFFSET -0.013390 0.211636 -0.033468
					CHANNELS 3 Zrotation Yrotation Xrotation
					JOINT upperneck
					{
						OFFSET 0.010113 0.088937 0.050410
						CHANNELS 3 Zrotation Yrotation Xrotation
						End Site
						{
							OFFSET 0.000000 0.000000 0.000000
						}
					}
				}
				JOINT lclavicle
				{
					OFFSET 0.071702 0.114000 -0.018898
					CHANNELS 3 Zrotation Yrotation Xrotation
					JOINT lshoulder
					{
						OFFSET 0.122921 0.045205 -0.019046
						CHANNELS 3 Zrotation Yrotation Xrotation
						JOINT lelbow
						{
							OFFSET 0.255332 -0.015649 -0.022946
							CHANNELS 3 Zrotation Yrotation Xrotation
							JOINT lwrist
							{
								OFFSET 0.265709 0.012698 -0.007375
								CHANNELS 3 Zrotation Yrotation Xrotation
								End Site
								{
									OFFSET 0.000000 0.000000 0.000000
								}
							}
						}
					}
				}
				JOINT rclavicle
				{
					OFFSET -0.082954 0.112472 -0.023707
					CHANNELS 3 Zrotation Yrotation Xrotation
					JOINT rshoulder
					{
						OFFSET -0.113228 0.046853 -0.008472
						CHANNELS 3 Zrotation Yrotation Xrotation
						JOINT relbow
						{
							OFFSET -0.260127 -0.014369 -0.031269
							CHANNELS 3 Zrotation Yrotation Xrotation
							JOINT rwrist
							{
								OFFSET -0.269108 0.006794 -0.006027
								CHANNELS 3 Zrotation Yrotation Xrotation
								End Site
								{
									OFFSET 0.000000 0.000000 0.000000
								}
							}
						}
					}
				}
			}
		}
	}
}
MOTION
Frames: 10
Frame Time: 0.033333
0.726430 0.694141 0.921464 -88.801479 -0.041927 83.987174 0.309396 -5.602323 -17.819038 -10.337055 -6.263919 45.823588 5.938769 12.167735 -28.195761 0.000000 -0.000000 0.000000 0.448614 -0.700428 -14.882902 -0.906235 -2.846803 43.530595 0.706680 -13.053927 -29.585572 0.000000 -0.000000 0.000000 -0.125438 4.894374 17.682973 0.062921 1.106309 -5.444639 -1.367326 1.814836 3.080574 2.127104 4.320117 -9.857494 0.046339 -6.357151 1.487808 -25.907956 -5.083839 0.710746 -48.499608 -6.022405 10.041878 -4.580952 -15.038709 13.418049 1.962659 -7.960094 -1.686710 25.607000 6.503968 4.450511 53.951144 0.352391 14.072007 -4.120845 28.087909 6.488069 -5.994688 6.202716 -8.992466 
0.728421 0.693412 0.920261 -89.409950 -0.222370 84.156831 0.198653 -5.617805 -18.259785 -10.287707 -5.799538 46.046791 5.936332 12.419286 -28.346959 0.000000 -0.000000 0.000000 0.046313 -0.470382 -15.630177 -0.533687 -2.822066 44.145492 0.857025 -12.932745 -29.655294 0.000000 -0.000000 0.000000 -0.385158 4.879838 17.824046 0.277306 1.042621 -5.067947 -1.386703 1.612473 3.198904 2.223437 2.129948 -9.969612 0.267325 -8.783658 1.256075 -25.799050 -5.087647 0.691490 -47.602322 -6.431362 9.908507 -4.062024 -15.511803 11.835880 1.738679 -8.190540 -1.863673 25.619440 6.757182 3.785825 52.638042 0.721441 13.976162 -4.852561 29.022040 5.046733 -4.975448 6.384939 -9.659844 
0.731068 0.693119 0.918875 -89.967355 -0.174086 84.444327 0.464779 -5.627992 -19.139925 -10.353736 -5.230752 46.689888 5.849841 12.551213 -28.520040 0.000000 -0.000000 0.000000 0.006138 -0.227693 -16.607517 -0.356878 -2.742097 44.835503 0.857091 -12.749827 -29.584712 0.000000 -0.000000 0.000000 -0.363439 4.685609 18.277459 0.420796 0.874827 -5.188788 -1.391928 1.665254 3.352669 2.216519 1.028668 -10.239598 0.130533 -10.232157 1.236646 -25.422118 -5.166738 0.527780 -46.912571 -6.747321 9.687104 -3.888405 -15.517849 11.095845 2.155492 -8.894428 -2.253152 25.365416 7.017043 3.423658 51.796592 1.243515 13.745529 -5.065153 29.520822 4.382929 -5.596546 6.943002 -10.507982 
0.733678 0.692452 0.917248 -91.063880 -0.286054 84.655764 0.486581 -5.254405 -19.781791 -10.189541 -4.603221 47.180795 5.819788 12.702554 -28.764668 0.000000 -0.000000 0.000000 -0.133721 0.190432 -17.607832 -0.174523 -2.394861 45.660677 0.830781 -12.411395 -29.658768 0.000000 -0.000000 0.000000 -0.517234 4.544720 18.951282 0.540263 0.900996 -5.050686 -1.289581 1.546844 3.329982 2.063175 0.482252 -10.427824 0.143660 -10.735095 0.812791 -25.360293 -5.641947 0.631976 -45.897603 -6.856305 9.374466 -3.648461 -15.754283 9.686526 2.460838 -9.626060 -2.596613 25.308301 7.609763 3.388352 50.349139 1.910827 13.527262 -5.310351 30.508235 3.180314 -5.946679 7.282549 -11.271106 
0.736245 0.692283 0.915879 -91.535924 -0.274669 84.883315 0.618286 -5.263443 -20.469406 -10.161189 -4.217533 47.648119 5.721832 12.824356 -28.821689 0.000000 -0.000000 0.000000 -0.176928 0.327445 -18.407401 -0.021990 -2.343843 46.189128 0.858485 -12.365701 -29.593351 0.000000 -0.000000 0.000000 -0.536083 4.362700 19.494713 0.612850 0.836284 -5.147733 -1.188364 1.421832 3.465826 1.994901 0.649130 -10.913482 -0.017697 -10.612250 0.597885 -25.297834 -5.842778 0.499060 -45.378480 -7.119609 9.168285 -3.702155 -15.925733 8.963001 2.738303 -10.226287 -3.119894 25.230130 7.876044 3.186673 49.275954 2.522151 13.507978 -4.994537 31.016367 3.217245 -5.970656 7.739863 -11.512993 
0.739199 0.691714 0.914112 -92.135179 -0.258431 85.229602 0.784236 -5.205863 -21.349556 -10.111303 -3.714804 48.179822 5.688048 12.934853 -28.937348 0.000000 -0.000000 0.000000 -0.237806 0.578854 -19.492086 0.197719 -2.218894 46.899367 0.856510 -12.239711 -29.564743 0.000000 -0.000000 0.000000 -0.527749 4.098769 20.256233 0.643453 0.719626 -5.226640 -1.053174 1.317267 3.422367 1.947259 0.754182 -11.395546 -0.092527 -10.338444 0.170684 -25.293938 -6.226805 0.491760 -44.564857 -7.276599 9.041931 -3.636838 -16.649202 8.036778 2.510300 -10.574688 -3.876815 25.138893 8.364429 3.203860 47.567425 3.361829 13.487656 -4.398401 31.790705 3.796302 -5.031011 8.051602 -11.508241 
0.742341 0.691392 0.912219 -92.739160 -0.214800 85.642778 1.041216 -5.071342 -22.369822 -10.085470 -3.184434 48.780559 5.574440 12.959734 -29.192889 0.000000 -0.000000 0.000000 -0.245460 0.950707 -20.686600 0.300052 -2.172836 47.660349 0.885425 -12.085483 -29.565795 0.000000 -0.000000 0.000000 -0.661983 3.904554 20.892576 0.779638 0.655643 -5.138740 -0.813591 1.233642 3.343479 1.739376 0.978397 -11.880705 -0.121711 -9.622427 -0.462227 -25.115733 -6.909863 0.539910 -43.839511 -7.553503 8.948854 -3.567225 -17.154372 7.088943 2.284520 -11.204892 -4.445447 24.720865 9.062702 3.305858 45.648241 4.216054 13.481829 -3.322096 32.372217 4.943076 -3.882433 8.507396 -11.426506 
0.746317 0.691409 0.910229 -93.350785 -0.173435 86.132067 1.424696 -5.074401 -23.619785 -10.073986 -2.467668 49.431513 5.477145 13.185454 -29.171252 0.000000 -0.000000 0.000000 -0.224425 1.374801 -22.081418 0.500032 -2.013674 48.435440 0.978266 -12.221048 -29.479422 0.000000 -0.000000 0.000000 -0.663310 3.747654 22.093451 0.684441 0.629955 -5.737919 -0.658843 1.095007 3.285286 1.682869 1.223378 -12.563375 -0.012712 -9.006668 -0.832154 -24.831034 -7.744829 0.574376 -42.691100 -7.681356 8.897020 -3.788273 -17.803151 6.358518 2.530679 -11.974611 -4.979643 24.114586 10.078173 3.462841 44.113640 4.737712 13.474563 -2.673076 32.794958 5.160118 -3.521661 8.811748 -11.938226 
0.749911 0.691265 0.908031 -93.805014 -0.213033 86.512939 1.599096 -4.896221 -24.765036 -10.016713 -1.963805 50.171082 5.507332 13.192623 -29.326953 0.000000 -0.000000 0.000000 -0.475557 1.267413 -23.271863 0.782902 -2.009115 49.125259 1.053234 -11.911808 -29.501091 0.000000 -0.000000 0.000000 -0.685953 3.749995 22.954350 0.609961 0.497467 -5.546578 -0.578952 1.102767 3.217888 1.553399 1.555220 -13.412113 0.143909 -8.720547 -1.675981 -24.339804 -8.819158 0.478626 -41.150566 -8.246516 8.604084 -4.239012 -18.167482 6.037510 2.482724 -12.719854 -4.863205 23.551739 10.827991 3.677003 42.496653 5.389643 12.967820 -2.226426 33.333575 4.824147 -3.374337 9.052494 -12.504519 
0.754215 0.691498 0.904607 -93.837199 -0.309860 87.137197 1.758867 -4.878728 -26.455479 -10.136713 -1.479252 51.239037 5.525922 13.257369 -29.437544 0.000000 -0.000000 0.000000 -0.737366 1.154369 -24.951278 0.819754 -2.086095 50.200850 1.156457 -12.009319 -29.447537 0.000000 -0.000000 0.000000 -0.743034 3.581249 24.228765 0.572824 0.192339 -5.913959 -0.507701 1.083248 3.248106 1.230881 1.804101 -14.001734 0.598135 -8.379855 -2.779169 -23.579190 -9.987006 0.306241 -39.059254 -8.837599 8.251239 -4.967228 -18.482967 5.437908 2.990743 -13.524099 -5.098014 22.679578 11.619472 3.490074 40.652222 5.633124 12.499897 -1.890437 33.933605 4.593018 -3.424812 9.474883 -12.578450 
